<svg xmlns="http://www.w3.org/2000/svg" width="16" height="16" viewBox="0 0 220 220" fill="#888888" aria-hidden="true">
	<path d="m65.21 130.22c-1.1 3.45-3.39 12.69-5.1 20.53-1.71 7.84-3.11 15.15-3.11 16.25 0 1.78 0.47 1.93 4.25 1.4 2.34-0.33 12.13-2.58 21.75-5 9.63-2.43 17.73-4.64 18-4.92 0.28-0.29-1.29-2.42-3.48-4.75-2.2-2.33-8.72-9.1-14.5-15.05-5.79-5.95-11.71-11.7-13.17-12.78l-2.64-1.96zm-33.71-92.13c-2.88 0.49-6.7 2.1-9 3.78-2.2 1.62-5.8 5.49-8 8.6l-4 5.67v130.36c4.11 6.97 7.04 10.54 9.15 12.42 2.12 1.89 5.76 4.25 8.1 5.25 3.98 1.71 8.19 1.81 68 1.58l63.75-0.25c6.97-4.13 10.16-6.6 11.58-8.16 1.42-1.56 3.67-4.64 5-6.84 2.41-3.99 2.42-4.12 2.68-36.5 0.23-29.88 0.11-32.65-1.5-34.28-0.97-0.99-2.44-1.79-3.26-1.79-0.83 0-2.4 0.96-3.5 2.14-1.88 2.01-2.03 3.89-2.5 31.78-0.46 27.12-0.67 29.98-2.5 33.52-1.1 2.13-3.58 5.05-5.5 6.5l-3.5 2.63c-100.46 0.44-122.89 0.18-124.5-0.47-1.38-0.56-4.08-2.62-6-4.58-3.2-3.26-3.56-4.24-4.18-11.26-0.38-4.23-0.71-31.32-0.75-60.19-0.04-35.53 0.3-53.8 1.05-56.5 0.61-2.2 2.06-5.18 3.23-6.63 1.17-1.44 3.7-3.41 5.63-4.38 3.08-1.53 8.02-1.83 39.73-2.37 30.18-0.52 36.48-0.87 37.85-2.12 1.11-1.02 1.44-2.38 1.04-4.25-0.37-1.67-1.59-3.15-3.1-3.75-1.52-0.61-15.79-0.96-36.25-0.88-18.57 0.06-36 0.5-38.75 0.97zm81.49 37.4l-39.49 39.5c24.8 24.91 33.23 33.01 34.75 34.08l2.75 1.93c54.43-53.86 71.98-71.64 74.11-74.25l3.89-4.75c-27.52-27.94-35.73-36.04-36.01-36.03-0.28 0.02-18.28 17.8-40 39.52zm60.51-58.98c-1.65 0.8-5.25 3.72-8 6.49l-5 5.02c24.8 24.89 33.26 33.1 34.81 34.3l2.82 2.18c7.41-7.83 10.27-12.18 11.32-15 1.62-4.37 1.69-5.51 0.57-9-0.9-2.79-4.05-6.77-10.4-13.16-5.02-5.04-10.81-9.87-12.87-10.75-2.07-0.88-5.22-1.58-7-1.57-1.79 0.01-4.6 0.68-6.25 1.49z"/>
</svg>
