<svg xmlns="http://www.w3.org/2000/svg" width="16" height="16" viewBox="0 0 220 220" fill="#888888" fill-rule="evenodd" aria-hidden="true">
	<path d="m120.75 9.08c8.39-0.05 15.91 0.48 20.5 1.45 3.99 0.84 9.95 2.47 13.25 3.62 3.3 1.15 9.15 3.66 13 5.57 3.85 1.91 9.7 5.39 13 7.74 3.3 2.34 9.05 7.36 12.78 11.15 5.39 5.48 6.77 7.51 6.74 9.89-0.03 2.58-4.04 7.01-28.51 31.5-15.67 15.68-28.48 29.17-28.47 30 0.01 0.83 0.9 2.85 1.97 4.5 1.07 1.65 13.88 14.93 28.47 29.5 22.94 22.91 26.52 26.91 26.52 29.5 0 2.43-1.47 4.41-7.75 10.45-4.26 4.09-10.68 9.32-14.25 11.62-3.57 2.29-8.75 5.3-11.5 6.69-2.75 1.38-9.05 3.86-14 5.51-5.12 1.71-13.74 3.57-20 4.31-8.78 1.05-13.17 1.07-21.75 0.12-5.91-0.66-14.46-2.38-19-3.82-4.54-1.44-11.4-4.2-15.25-6.13-3.85-1.94-9.7-5.33-13-7.54-3.3-2.2-9.83-7.88-14.52-12.61-4.93-4.98-10.73-12.18-13.77-17.1-2.88-4.68-6.64-11.88-8.34-16-1.71-4.12-3.94-11.32-4.96-16-1.31-5.96-1.87-12.54-1.87-22 0-9.46 0.56-16.04 1.87-22 1.02-4.67 3.34-12.1 5.15-16.5 1.8-4.4 5.12-11.02 7.36-14.72 2.24-3.69 6.61-9.9 9.7-13.8 3.09-3.9 8.49-9.27 12-11.93 3.51-2.67 9.3-6.62 12.88-8.78 3.58-2.16 10.1-5.41 14.5-7.22 4.4-1.81 11.6-4.1 16-5.08q8-1.8 21.25-1.89zm-2.63 26.89c-1.31 0.46-3.74 2.34-5.39 4.18-1.66 1.84-3.4 4.36-3.87 5.6-0.47 1.24-0.85 4.39-0.84 7q0.02 4.75 2.39 8.75c1.31 2.2 4.11 5 6.23 6.22 2.56 1.47 5.54 2.22 8.86 2.22 3.53 0.01 6.25-0.71 9.25-2.46 2.87-1.68 4.89-3.86 6.24-6.73 1.09-2.34 1.99-5.94 2-8 0-2.06-0.47-4.99-1.05-6.5-0.59-1.51-2.28-4.04-3.75-5.62-1.48-1.58-4.15-3.5-5.94-4.25-1.79-0.76-5.16-1.35-7.5-1.32-2.34 0.04-5.32 0.44-6.63 0.91z"/>
</svg>
