<svg xmlns="http://www.w3.org/2000/svg" width="16" height="16" viewBox="0 0 220 220" fill="#888888" fill-rule="evenodd" aria-hidden="true">
	<path d="m84.69 8c34.6 0 63.85 22.92 73.4 54.41 31.49 9.55 54.41 38.8 54.41 73.4 0 42.36-34.33 76.69-76.69 76.69-34.6 0-63.85-22.92-73.4-54.41-31.49-9.55-54.41-38.8-54.41-73.4 0-42.36 34.33-76.69 76.69-76.69zm76.54 71.96l0.11 2.25 0.04 2.48c0 42.35-34.34 76.69-76.69 76.69q-2.38-0.01-4.72-0.15c9.65 21.2 31.03 35.93 55.84 35.93 33.89 0 61.35-27.46 61.35-61.35 0-24.81-14.73-46.19-35.93-55.85zm-76.54-56.62c-33.89 0-61.35 27.46-61.35 61.35 0 24.81 14.73 46.19 35.93 55.85l-0.11-2.25-0.04-2.48c0-42.35 34.34-76.68 76.69-76.68q2.38 0 4.72 0.14c-9.65-21.2-31.03-35.93-55.84-35.93z"/>
</svg>
