<svg xmlns="http://www.w3.org/2000/svg" width="16" height="16" viewBox="0 0 220 220" fill="#888888" fill-rule="evenodd" aria-hidden="true">
	<path d="m108.5 7.06c6.6-0.04 15.94 0.6 20.75 1.43 4.81 0.83 12.46 2.87 17 4.54 4.54 1.67 11.18 4.65 14.75 6.63 3.57 1.97 8.97 5.51 12 7.85 3.03 2.34 8.21 7.12 11.53 10.62 3.32 3.5 7.67 8.62 9.67 11.37 2 2.75 5.44 8.6 7.65 13 2.21 4.4 5.19 12.05 6.62 17 1.44 4.95 3.12 13.5 3.75 19 0.87 7.54 0.86 12.34-0.01 19.5-0.64 5.22-1.87 12.2-2.74 15.5-0.88 3.3-2.95 9.38-4.62 13.5-1.66 4.13-3.89 8.74-4.94 10.25-1.05 1.51-3.15 3.38-4.66 4.14-1.51 0.76-5 1.7-7.75 2.08-2.75 0.38-6.24 1.33-7.75 2.11-1.52 0.79-3.63 3.32-4.73 5.67-1.74 3.75-1.98 6.45-2.02 41.75h-126l-0.02-18.75c-0.02-16.55-0.26-19.25-2-23-1.26-2.7-3.17-4.84-5.23-5.87-1.79-0.9-5.27-1.83-7.75-2.08-2.47-0.25-5.62-1.15-7-2-1.37-0.85-3.31-2.51-4.3-3.68-0.98-1.16-2.93-4.59-4.31-7.62-1.39-3.03-3.58-9.1-4.86-13.5-1.29-4.4-2.88-12.5-3.53-18-0.88-7.38-0.92-12.62-0.13-20 0.58-5.5 2.2-13.94 3.59-18.75 1.4-4.81 4.18-12.01 6.17-16 2-3.99 5.15-9.61 7-12.5 1.86-2.89 6.68-8.74 10.74-13 4.05-4.26 10.68-10.05 14.75-12.87 4.06-2.81 9.41-6.14 11.88-7.39 2.47-1.25 7.42-3.39 11-4.74 3.58-1.36 10.33-3.29 15-4.29 5.33-1.14 12.98-1.85 20.5-1.9zm-3.92 133.19c-1.4 1.24-6.4 9-11.12 17.25-7.14 12.48-8.49 15.5-8 18 0.32 1.65 1.71 4.13 3.09 5.5 2.49 2.49 2.56 2.5 21.55 2.5h19.06c5.48-6.28 5.99-7.62 5.55-10-0.3-1.65-4.18-9.3-8.62-17-4.43-7.7-9.19-15.01-10.57-16.25-1.4-1.25-3.82-2.25-5.46-2.25-1.63 0-4.07 1-5.48 2.25zm38.42-51.73c-2.47 0.76-6.49 3.09-8.93 5.18-2.46 2.11-5.45 6.02-6.74 8.8-1.61 3.48-2.31 6.82-2.3 11 0 3.3 0.56 7.76 1.24 9.92 0.67 2.15 3.03 5.93 5.23 8.38 2.2 2.46 5.8 5.37 8 6.48 2.2 1.1 6.7 2.24 10 2.53 4.44 0.39 7.3 0.04 11-1.34 2.75-1.02 6.76-3.46 8.91-5.42 2.15-1.95 4.95-5.8 6.24-8.55 1.68-3.6 2.34-6.82 2.35-11.5 0.02-5.15-0.55-7.63-2.74-11.93-1.52-2.99-4.56-6.95-6.76-8.8-2.2-1.85-6.25-4.02-9-4.82-2.75-0.81-6.57-1.43-8.5-1.39-1.93 0.04-5.53 0.7-8 1.46zm-83-0.01c-2.47 0.75-6.53 3.12-9 5.26-2.58 2.23-5.44 5.99-6.7 8.81-1.24 2.8-2.27 7.29-2.38 10.42-0.1 3.03 0.44 7.49 1.2 9.92 0.76 2.43 3.18 6.43 5.38 8.88 2.2 2.46 5.8 5.38 8 6.49 2.24 1.12 6.86 2.22 10.5 2.48 5.35 0.4 7.46 0.06 11.9-1.89 3.05-1.35 7.07-4.23 9.25-6.63 2.12-2.34 4.52-5.82 5.35-7.75 0.83-1.94 1.51-6.5 1.51-10.25 0.01-5.41-0.54-7.83-2.75-12.18-1.52-2.99-4.56-6.94-6.76-8.77-2.2-1.84-6.03-4.01-8.5-4.83-2.47-0.82-6.3-1.46-8.5-1.41-2.2 0.04-6.03 0.69-8.5 1.45z"/>
</svg>
