<svg xmlns="http://www.w3.org/2000/svg" width="16" height="16" viewBox="0 0 220 220" fill="#888888" aria-hidden="true">
	<path d="m103.21 24.25c-2.72 5.09-6.66 12.4-8.77 16.25-2.1 3.85-5.77 10.6-8.16 15-2.39 4.4-5.56 10.34-7.06 13.2-2.13 4.07-3.37 5.34-5.72 5.81-1.65 0.34-7.72 1.46-13.5 2.5-5.78 1.03-15.45 2.83-21.5 3.99-6.05 1.15-14.6 2.76-19 3.57-4.4 0.8-8.38 1.79-8.84 2.2-0.47 0.4-0.47 1.48 0 2.39 0.46 0.91 3.95 4.96 7.75 9 3.8 4.04 10.55 11.18 15 15.87 4.45 4.69 11.24 11.83 15.09 15.86l7 7.34c-1.84 15.71-3.75 30.62-5.44 43.27-1.69 12.65-3.06 23.34-3.06 23.75 0 0.41 0.68 0.75 1.5 0.75 0.83 0 7.24-2.75 14.25-6.12 7.01-3.36 16.13-7.69 20.25-9.61 4.13-1.92 11.66-5.46 16.75-7.88 5.09-2.41 9.59-4.4 10-4.42 0.41-0.01 5.25 2.18 10.75 4.86 5.5 2.69 12.25 5.92 15 7.17 2.75 1.25 11.53 5.38 19.5 9.17 7.97 3.79 15.18 6.88 16 6.87 1.25-0.01 1.37-1 0.75-5.78-0.41-3.17-1.64-12.51-2.74-20.76-1.09-8.25-2.73-20.63-3.64-27.5-1.01-7.67-1.3-13.13-0.76-14.13 0.49-0.9 7.9-9 16.47-18 8.56-9 18.46-19.46 22-23.23 3.53-3.77 6.42-7.37 6.42-8 0-0.67-5.56-2.21-13.5-3.75-7.43-1.43-20.25-3.84-28.5-5.35-8.25-1.52-17.18-3.27-19.84-3.9-4.11-0.97-5.18-1.75-7.08-5.14-1.23-2.2-5.41-9.85-9.29-17-3.87-7.15-8.5-15.7-10.28-19-1.77-3.3-4.75-8.81-6.62-12.25-1.86-3.44-4.03-6.25-4.82-6.25-0.78 0-3.65 4.16-6.36 9.25z"/>
</svg>
